<svg xmlns="http://www.w3.org/2000/svg" width="35.381" height="35.381" viewBox="0 0 35.381 35.381">
  <g id="facebook" transform="translate(-933.118 -96.447)">
    <path id="Caminho_89" data-name="Caminho 89" d="M968.5,114.138a17.691,17.691,0,1,0-20.455,17.475V119.251h-4.492v-5.113h4.492v-3.9c0-4.434,2.641-6.883,6.682-6.883a27.158,27.158,0,0,1,3.96.346v4.353h-2.231a2.557,2.557,0,0,0-2.882,2.763v3.319h4.906l-.784,5.113h-4.122v12.362A17.694,17.694,0,0,0,968.5,114.138Z" fill="#3578a6"/>
    <path id="Caminho_90" data-name="Caminho 90" d="M957.7,119.251l.784-5.113h-4.906v-3.319a2.557,2.557,0,0,1,2.882-2.763h2.231V103.7a27.158,27.158,0,0,0-3.96-.346c-4.041,0-6.682,2.449-6.682,6.883v3.9h-4.492v5.113h4.492v12.362a17.881,17.881,0,0,0,5.529,0V119.251Z" fill="#fff"/>
  </g>
</svg>
