<svg xmlns="http://www.w3.org/2000/svg" width="35.381" height="35.382" viewBox="0 0 35.381 35.382">
  <g id="instagram" transform="translate(-1198 -798.31)">
    <circle id="Elipse_4" data-name="Elipse 4" cx="17.691" cy="17.691" r="17.691" transform="translate(1198 798.31)" fill="#3578a6"/>
    <g id="instagram-2" data-name="instagram" transform="translate(212.97 701.863)">
      <g id="Grupo_48" data-name="Grupo 48">
        <path id="Caminho_91" data-name="Caminho 91" d="M1008.212,107.445a1.216,1.216,0,1,0,1.216,1.216A1.217,1.217,0,0,0,1008.212,107.445Z" fill="#fff"/>
        <path id="Caminho_92" data-name="Caminho 92" d="M1002.806,109a5.108,5.108,0,1,0,5.108,5.108A5.113,5.113,0,0,0,1002.806,109Zm0,8.38a3.272,3.272,0,1,1,3.272-3.272A3.276,3.276,0,0,1,1002.806,117.385Z" fill="#fff"/>
        <path id="Caminho_93" data-name="Caminho 93" d="M1006.861,124.484H998.58a6.237,6.237,0,0,1-6.23-6.23v-8.282a6.236,6.236,0,0,1,6.23-6.23h8.281a6.237,6.237,0,0,1,6.231,6.23v8.282A6.238,6.238,0,0,1,1006.861,124.484Zm-8.281-18.791a4.283,4.283,0,0,0-4.279,4.279v8.282a4.284,4.284,0,0,0,4.279,4.279h8.281a4.285,4.285,0,0,0,4.28-4.279v-8.282a4.284,4.284,0,0,0-4.28-4.279Z" fill="#fff"/>
      </g>
    </g>
  </g>
</svg>
