<svg xmlns="http://www.w3.org/2000/svg" xmlns:xlink="http://www.w3.org/1999/xlink" width="224.085" height="41.646" viewBox="0 0 224.085 41.646">
  <defs>
    <clipPath id="clip-path">
      <rect id="Retângulo_1" data-name="Retângulo 1" width="224.085" height="41.646" fill="none"/>
    </clipPath>
  </defs>
  <g id="logo-esquadgroup" transform="translate(0 0)">
    <path id="Caminho_1" data-name="Caminho 1" d="M89,39.836V8.313h10.48v3.82H93.221V21.7h5.558v3.82H93.236V36.016h6.255v3.82Z" transform="translate(-34.564 -3.229)" fill="#005281"/>
    <g id="Grupo_2" data-name="Grupo 2" transform="translate(0 0)">
      <g id="Grupo_1" data-name="Grupo 1" clip-path="url(#clip-path)">
        <path id="Caminho_2" data-name="Caminho 2" d="M118.228,16.782V14.019a1.655,1.655,0,0,0-1.848-1.887h-.667c-1.212,0-1.8.634-1.8,1.887v5.223a1.6,1.6,0,0,0,.348,1.193,7.616,7.616,0,0,0,1.151.785l4.013,2.159c.878.5,1.5.891,1.878,1.163a3.079,3.079,0,0,1,.863,1.011,5.452,5.452,0,0,1,.3,2.265v6.719q0,5.321-5.1,5.314H114.76q-5.066,0-5.058-5.8V32.468h4.226v1.706a1.655,1.655,0,0,0,1.893,1.842h.742c1.121,0,1.681-.619,1.681-1.842v-5.36a1.6,1.6,0,0,0-.349-1.193,8.437,8.437,0,0,0-1.151-.785L112.716,24.6a12.6,12.6,0,0,1-1.924-1.193,2.749,2.749,0,0,1-.864-1.253,6.131,6.131,0,0,1-.257-1.993V13.717c0-3.593,1.681-5.4,5.059-5.4h2.635q5.066,0,5.058,5.4V16.8h-4.2Z" transform="translate(-42.594 -3.228)" fill="#005281"/>
        <path id="Caminho_3" data-name="Caminho 3" d="M150.983,39.836H139.488q-5.112,0-5.1-5.314v-20.8c0-3.593,1.681-5.4,5.059-5.4H143.5q5.066,0,5.058,5.4v22.3h2.423Zm-6.664-3.82V13.974a1.655,1.655,0,0,0-1.893-1.842h-1.984a1.634,1.634,0,0,0-1.848,1.842v20.2a1.655,1.655,0,0,0,1.893,1.842Z" transform="translate(-52.192 -3.229)" fill="#005281"/>
        <path id="Caminho_4" data-name="Caminho 4" d="M178.554,8.312V33.871q0,5.979-5.1,5.979h-3.575q-5.066,0-5.057-6.009V8.327h4.224V33.962c0,1.374.622,2.068,1.848,2.068H172.6c1.151,0,1.712-.694,1.712-2.068V8.312Z" transform="translate(-64.012 -3.228)" fill="#005281"/>
        <path id="Caminho_5" data-name="Caminho 5" d="M195.093,39.835h-4.226V13.717c0-3.593,1.681-5.4,5.059-5.4h3.165q5.066,0,5.059,5.4V39.835h-4.226V28.286h-4.846V39.835Zm4.846-15.369V13.973a1.634,1.634,0,0,0-1.848-1.842H196.94a1.634,1.634,0,0,0-1.848,1.842V24.466Z" transform="translate(-74.129 -3.228)" fill="#005281"/>
        <path id="Caminho_6" data-name="Caminho 6" d="M215.975,39.836V8.313h7.361q5.951,0,5.952,6.054V35.261c0,3.05-1.7,4.559-5.059,4.559h-8.254Zm4.226-3.82h3.165q1.683,0,1.682-1.4v-20.2c0-1.525-.637-2.279-1.893-2.279H220.2Z" transform="translate(-83.881 -3.229)" fill="#005281"/>
        <path id="Caminho_7" data-name="Caminho 7" d="M248.072,28.287v-3.82h6.437V39.836h-8.284q-4.884,0-4.892-5.314v-20.8c0-3.593,1.635-5.4,4.892-5.4h2.908q5.384,0,5.377,5.5v3.427h-4.226V14.412c0-1.525-.605-2.279-1.8-2.279h-1.061c-1.227,0-1.848.755-1.848,2.279V33.737c0,1.525.621,2.279,1.848,2.279h2.862v-7.73Z" transform="translate(-93.73 -3.229)" fill="#3578a6"/>
        <path id="Caminho_8" data-name="Caminho 8" d="M266.391,8.313h8.284q4.839,0,4.846,5.4v7.775c0,2.748-.833,4.5-2.514,5.224l2.953,13.134h-4.013l-2.771-12.727h-2.56V39.851h-4.226ZM270.617,23.5h2.772c1.257,0,1.893-.755,1.893-2.279V14.412c0-1.525-.636-2.279-1.893-2.279h-2.772Z" transform="translate(-103.462 -3.229)" fill="#3578a6"/>
        <path id="Caminho_9" data-name="Caminho 9" d="M297.4,39.836q-5.112,0-5.1-5.36V13.717c0-3.593,1.681-5.4,5.059-5.4h4.059q5.066,0,5.058,5.4V34.476q0,5.367-5.1,5.36Zm1.015-3.82h2.15c1.121,0,1.681-.619,1.681-1.842v-20.2a1.655,1.655,0,0,0-1.893-1.842h-1.984a1.634,1.634,0,0,0-1.848,1.842v20.2a1.655,1.655,0,0,0,1.893,1.842" transform="translate(-113.522 -3.229)" fill="#3578a6"/>
        <path id="Caminho_10" data-name="Caminho 10" d="M332.723,8.312V33.871q0,5.979-5.1,5.979h-3.574q-5.066,0-5.058-6.009V8.327h4.225V33.962c0,1.374.621,2.068,1.848,2.068h1.711c1.151,0,1.712-.694,1.712-2.068V8.312Z" transform="translate(-123.889 -3.228)" fill="#3578a6"/>
        <path id="Caminho_11" data-name="Caminho 11" d="M345.433,8.313h7.709q5.111,0,5.1,5.4v9.345c0,3.578-1.7,5.36-5.058,5.36h-3.514V39.836h-4.24Zm4.24,16.29h2.681c1.12,0,1.681-.619,1.681-1.842V13.974a1.655,1.655,0,0,0-1.894-1.842h-2.469Z" transform="translate(-134.16 -3.229)" fill="#3578a6"/>
        <path id="Caminho_12" data-name="Caminho 12" d="M37.341,26.476h4.665l8.178-8.138-2.332-2.325Z" transform="translate(-14.503 -6.22)" fill="#3578a6"/>
        <path id="Caminho_13" data-name="Caminho 13" d="M58.169,39.071A6.458,6.458,0,0,0,60,35.342H47.1L54.5,42.725Z" transform="translate(-18.292 -13.726)" fill="#3578a6"/>
        <path id="Caminho_14" data-name="Caminho 14" d="M60.007,28.355A6.306,6.306,0,0,0,58.159,24.4L54.6,20.852l-7.527,7.5Z" transform="translate(-18.282 -8.099)" fill="#d5dd26"/>
        <path id="Caminho_15" data-name="Caminho 15" d="M29.433,23.159,40.565,12.047,35.976,7.473,20.255,23.159Z" transform="translate(-7.867 -2.902)" fill="#005281"/>
        <path id="Caminho_16" data-name="Caminho 16" d="M11.121,35.342H.05a6.283,6.283,0,0,0,1.832,3.729L16.361,53.5a6.44,6.44,0,0,0,9.072,0l1.954-1.947Z" transform="translate(-0.019 -13.726)" fill="#005281"/>
        <path id="Caminho_17" data-name="Caminho 17" d="M11.1,20.257,27.473,3.936,25.4,1.869a6.441,6.441,0,0,0-9.072,0L1.848,16.3A6.31,6.31,0,0,0,0,20.257Z" transform="translate(0 0)" fill="#005281"/>
        <path id="Caminho_18" data-name="Caminho 18" d="M35.87,50.907l4.589-4.574L29.433,35.342H20.255Z" transform="translate(-7.867 -13.726)" fill="#005281"/>
        <path id="Caminho_19" data-name="Caminho 19" d="M42.006,35.342H37.341l10.39,10.342,2.332-2.31Z" transform="translate(-14.503 -13.726)" fill="#3578a6"/>
      </g>
    </g>
  </g>
</svg>
