<svg xmlns="http://www.w3.org/2000/svg" width="35.381" height="35.382" viewBox="0 0 35.381 35.382">
  <g id="youtube" transform="translate(-1257 -798.309)">
    <circle id="Elipse_5" data-name="Elipse 5" cx="17.691" cy="17.691" r="17.691" transform="translate(1257 798.309)" fill="#3578a6"/>
    <path id="Caminho_94" data-name="Caminho 94" d="M1064.194,111.61a4.248,4.248,0,0,0-4.249-4.248h-10.862a4.248,4.248,0,0,0-4.248,4.248v5.055a4.248,4.248,0,0,0,4.248,4.248h10.862a4.248,4.248,0,0,0,4.249-4.248Zm-6.389,2.906-4.871,2.41c-.191.1-.84-.035-.84-.252v-4.947c0-.22.655-.358.846-.249l4.662,2.537C1057.8,114.126,1058,114.409,1057.805,114.516Z" transform="translate(219.969 701.862)" fill="#fff"/>
  </g>
</svg>
